<svg width="24" height="24" viewBox="0 0 16 16" fill="none" xmlns="http://www.w3.org/2000/svg">
<path fill-rule="evenodd" clip-rule="evenodd" d="M8 16C12.4183 16 16 12.4183 16 8C16 3.58172 12.4183 0 8 0C3.58172 0 0 3.58172 0 8C0 12.4183 3.58172 16 8 16ZM9.0325 8.90058V12.9986H7.3765V8.89758H6V7.29309H7.3735V6.11558C7.3735 4.74608 8.2125 4.00008 9.4345 4.00008C9.84652 3.99848 10.2583 4.01968 10.668 4.06358V5.49408H9.826C9.1615 5.49408 9.0325 5.81108 9.0325 6.27408V7.29608H10.6205L10.415 8.90058H9.0325Z" fill="white"/>
</svg>
