<svg width="24" height="24" viewBox="0 0 16 16" fill="none" xmlns="http://www.w3.org/2000/svg">
<path d="M7.0485 8.93198C7.29838 9.18186 7.6373 9.32225 7.99068 9.32225C8.34407 9.32225 8.68298 9.18186 8.93286 8.93198C9.18275 8.6821 9.32313 8.34319 9.32313 7.9898C9.32313 7.63641 9.18275 7.2975 8.93286 7.04762C8.68298 6.79774 8.34407 6.65735 7.99068 6.65735C7.6373 6.65735 7.29838 6.79774 7.0485 7.04762C6.79862 7.2975 6.65824 7.63641 6.65824 7.9898C6.65824 8.34319 6.79862 8.6821 7.0485 8.93198Z" fill="white"/>
<path fill-rule="evenodd" clip-rule="evenodd" d="M11.0978 10.3544C11.1862 10.1145 11.2329 9.8613 11.2358 9.60568L11.2406 9.60612C11.2597 9.18208 11.2597 9.06587 11.2597 7.98536C11.2597 6.90441 11.2548 6.78598 11.2358 6.36416C11.2316 6.1114 11.185 5.86114 11.0978 5.62386C11.0311 5.45135 10.9292 5.29468 10.7984 5.16391C10.6676 5.03313 10.5109 4.93115 10.3384 4.86449C10.1013 4.77626 9.8507 4.72959 9.59769 4.72655C9.16877 4.70215 9.05789 4.70215 7.97694 4.70215C6.89599 4.70215 6.77756 4.70747 6.35573 4.72655C6.10292 4.73008 5.85256 4.77673 5.61544 4.86449C5.26547 4.99845 4.98825 5.2739 4.85296 5.62386C4.76454 5.86357 4.71788 6.11667 4.71501 6.37214C4.69151 6.80195 4.69151 6.9124 4.69151 7.99335C4.69151 9.07385 4.69594 9.19273 4.71501 9.61411C4.71914 9.86686 4.76578 10.1171 4.85296 10.3544C4.91986 10.5272 5.0223 10.6841 5.15364 10.8148C5.28499 10.9455 5.44231 11.0472 5.61544 11.1133C5.85244 11.2015 6.10287 11.2482 6.35573 11.2513C6.7851 11.2757 6.89554 11.2757 7.97694 11.2757C9.05744 11.2757 9.17631 11.2708 9.59769 11.2513C9.85068 11.248 10.1012 11.2014 10.3384 11.1133C10.511 11.0468 10.6677 10.9449 10.7984 10.8142C10.9292 10.6835 11.0312 10.5269 11.0978 10.3544ZM6.5404 6.53996C6.92504 6.15532 7.44672 5.93923 7.99068 5.93923C8.53464 5.93923 9.05633 6.15532 9.44096 6.53996C9.8256 6.9246 10.0417 7.44628 10.0417 7.99024C10.0417 8.5342 9.8256 9.05589 9.44096 9.44053C9.05633 9.82516 8.53464 10.0413 7.99068 10.0413C7.44672 10.0413 6.92504 9.82516 6.5404 9.44053C6.15576 9.05589 5.93967 8.5342 5.93967 7.99024C5.93967 7.44628 6.15576 6.9246 6.5404 6.53996ZM10.1229 6.34198C10.3869 6.34198 10.601 6.12791 10.601 5.86383C10.601 5.59975 10.3869 5.38567 10.1229 5.38567C9.85879 5.38567 9.64471 5.59975 9.64471 5.86383C9.64471 6.12791 9.85879 6.34198 10.1229 6.34198Z" fill="white"/>
<path fill-rule="evenodd" clip-rule="evenodd" d="M8 16C12.4183 16 16 12.4183 16 8C16 3.58172 12.4183 0 8 0C3.58172 0 0 3.58172 0 8C0 12.4183 3.58172 16 8 16ZM11.3153 4.67068C11.5164 4.87172 11.6733 5.11252 11.776 5.37769C11.8944 5.69228 11.9576 6.02496 11.9627 6.36106C11.9876 6.78554 11.9876 6.92304 11.9876 8.00665C11.9876 9.09026 11.9818 9.22555 11.9627 9.65225C11.9561 9.98403 11.8935 10.3114 11.7769 10.6219C11.6741 10.887 11.5171 11.1278 11.316 11.3289C11.1149 11.53 10.8741 11.6869 10.609 11.7898C10.2986 11.906 9.97077 11.9689 9.63939 11.9756C9.21579 12 9.07696 12 7.99379 12C6.91062 12 6.77534 11.9942 6.34819 11.9756C6.01613 11.9647 5.68837 11.8972 5.37902 11.776C5.1138 11.6734 4.87291 11.5165 4.67174 11.3155C4.47057 11.1145 4.31354 10.8737 4.21069 10.6086C4.09403 10.2976 4.03149 9.97028 4.02484 9.6385C4 9.21402 4 9.07607 4 7.9929C4 6.90929 4.00577 6.77401 4.02484 6.34731C4.03132 6.0159 4.09417 5.68801 4.21069 5.37769C4.31325 5.11245 4.47013 4.87158 4.67125 4.67054C4.87237 4.46949 5.1133 4.31271 5.37858 4.21025C5.68852 4.09341 6.01614 4.03041 6.34731 4.02395C6.7709 4 6.90974 4 7.9929 4C9.07607 4 9.21136 4.00532 9.6385 4.02395C9.96992 4.03076 10.2978 4.09375 10.6081 4.21025C10.8733 4.31283 11.1142 4.46965 11.3153 4.67068Z" fill="white"/>
</svg>
